<svg width="89" height="65" viewBox="0 0 89 65" fill="none" xmlns="http://www.w3.org/2000/svg">
<path d="M25.0039 63.4102C24.3156 57.9036 4.93136 60.2097 1 60.2097" stroke="#26A4FF" stroke-width="2" stroke-linecap="round"/>
<path d="M12.2021 52.2084C16.2457 52.2084 19.4935 52.831 23.404 53.8087" stroke="#26A4FF" stroke-width="2" stroke-linecap="round"/>
<path d="M5.80078 12.2018C14.5431 13.7913 26.5649 27.0551 30.1603 34.6055C33.5972 41.8229 32.7469 49.5646 35.4056 57.0092C40.2346 70.5302 29.6097 24.31 39.7619 14.1577C47.9583 5.96128 64.158 25.3711 66.6107 32.1162C68.4528 37.1819 65.8233 36.6885 64.2993 32.1162C62.7217 27.3835 62.6416 19.6601 63.588 14.6911C65.3662 5.35573 79.418 1 87.4141 1" stroke="#26A4FF" stroke-width="2" stroke-linecap="round"/>
<path d="M23.4038 10.6016C26.3219 10.6016 25.9563 11.2098 26.6043 13.8021" stroke="#26A4FF" stroke-width="2" stroke-linecap="round"/>
</svg>
