<svg width="206" height="49" viewBox="0 0 206 49" fill="none" xmlns="http://www.w3.org/2000/svg">
<path d="M128.558 48.377C120.696 48.9898 120.359 49.184 116.825 42.9485C114.184 38.2837 111.068 35.5435 105.64 36.6611C105.23 36.7859 104.804 36.847 104.375 36.8424V29.7265C105.942 29.7265 107.5 29.7265 109.053 29.7265C111.496 29.7265 113.942 29.7783 116.389 29.6791C119.349 29.5626 120.933 28.2507 121.339 25.2948C121.608 23.2243 121.652 21.1305 121.468 19.0506C121.157 15.1669 119.591 13.704 115.651 13.5918C111.711 13.4796 107.746 13.553 103.789 13.5487H100.47C100.47 25.1998 100.354 37.0064 100.354 48.6661H93.4492V6.72629C93.6693 6.5882 93.7858 6.4458 93.9023 6.4458C101.514 6.48895 109.135 6.33791 116.739 6.65292C122.823 6.90752 126.996 10.5798 128.075 16.6125C128.62 19.8688 128.668 23.1891 128.217 26.4599C127.639 30.8873 125.788 32.8378 120.484 36.1778L128.558 48.377Z" fill="#201F1F"/>
<path d="M143.648 48.541C143.648 42.5644 143.148 36.7561 143.778 31.0772C144.537 24.2375 150.108 19.5339 156.961 18.8219C158.445 18.6666 159.934 18.5803 161.591 18.4508V25.4976C159.83 25.7004 158.139 25.8342 156.452 26.1061C153.021 26.6627 151.01 28.8592 150.648 32.1819C150.324 35.1637 150.583 38.1844 150.583 41.6366C153.604 41.4467 156.624 41.5028 159.554 41.0152C163.006 40.4327 164.875 38.3441 165.164 34.8358C165.488 31.1765 165.483 27.4999 165.518 23.806C165.57 18.1099 165.518 12.4095 165.518 6.54504H172.336C172.431 6.8792 172.495 7.22163 172.526 7.56775C172.526 16.1637 172.617 24.764 172.431 33.3557C172.319 38.4261 170.476 42.983 165.988 45.667C163.483 47.1617 160.688 48.1033 157.789 48.4288C153.094 48.8776 148.326 48.541 143.648 48.541Z" fill="#201F1F"/>
<path d="M205.537 37.4465H187.357V30.4429H198.248C198.568 27.5171 197.42 25.9291 194.844 25.7781C192.4 25.6355 189.951 25.6355 187.508 25.7781C184.897 25.9291 183.706 27.1417 183.572 29.7567C183.445 32.2983 183.445 34.8446 183.572 37.3861C183.719 40.2212 184.962 41.4424 187.81 41.5201C191.694 41.6237 195.577 41.5675 199.461 41.5805H201.985V48.3986C201.903 48.4633 201.791 48.6273 201.683 48.6273C196.371 48.5841 191.029 48.8776 185.764 48.3684C180.5 47.8592 176.633 43.0002 176.431 37.6752C176.327 34.9178 176.318 32.1474 176.431 29.3856C176.629 24.2073 180.832 19.3742 185.924 18.8003C188.992 18.4509 192.087 18.4119 195.163 18.6838C200.773 19.1844 204.657 22.8135 205.455 28.4276C205.882 31.3706 205.537 34.4301 205.537 37.4465Z" fill="#201F1F"/>
<path d="M57.27 18.5975H64.5153L64.4808 32.6523C64.4808 32.6523 63.9673 41.1447 72.1188 41.2396L86.4713 41.3216V48.6575H72.3777C71.9444 48.6572 71.5118 48.6255 71.0831 48.5626C68.0279 48.1311 57.365 45.6325 57.3218 32.6523L57.27 18.5975Z" fill="#201F1F"/>
<path d="M0.429199 6.48468H34.2176V13.5703H21.0561L21.1898 48.6662H13.8626L13.8453 13.6178L0.429199 13.5228V6.48468Z" fill="#201F1F"/>
<path d="M52.1216 18.3343C52.1216 18.3343 32.785 17.0786 32.3189 35.5953L32.1506 48.6446H39.2017L39.3053 37.1617C39.3094 34.9055 39.8367 32.6809 40.8459 30.6629C42.0153 28.3672 44.0046 26.0111 47.2756 25.7651L52.1259 25.5494L52.1216 18.3343Z" fill="#201F1F"/>
<path d="M79.2512 18.3343H84.313C84.8852 18.3343 85.434 18.5616 85.8387 18.9662C86.2433 19.3709 86.4706 19.9197 86.4706 20.4919V37.6062H81.4088C80.8366 37.6062 80.2878 37.3789 79.8832 36.9742C79.4785 36.5696 79.2512 36.0208 79.2512 35.4485V18.3343Z" fill="#26A4FF"/>
<path d="M132.411 18.5975H137.472C138.045 18.5975 138.593 18.8249 138.998 19.2295C139.403 19.6341 139.63 20.1829 139.63 20.7552V48.6662H134.568C133.996 48.6662 133.447 48.4388 133.043 48.0342C132.638 47.6296 132.411 47.0808 132.411 46.5085V18.5975Z" fill="#201F1F"/>
<path d="M142.215 6.20847C142.187 7.81946 141.726 9.39328 140.882 10.7654C139.717 12.7071 138.18 14.3995 136.359 15.7452C136.316 15.7914 136.263 15.8282 136.204 15.8533C136.145 15.8785 136.082 15.8914 136.019 15.8914C135.955 15.8914 135.892 15.8785 135.833 15.8533C135.774 15.8282 135.722 15.7914 135.678 15.7452C133.664 14.2668 132.005 12.3576 130.823 10.1569C130.141 8.87082 129.79 7.43539 129.8 5.97976C129.86 4.35623 130.554 2.82093 131.733 1.70318C132.913 0.585441 134.483 -0.025708 136.107 0.000829455C137.732 0.0273669 139.281 0.689475 140.423 1.84513C141.565 3.00079 142.208 4.55795 142.215 6.18258V6.20847ZM133.796 6.14374C133.796 6.58194 133.926 7.01028 134.17 7.37451C134.414 7.73874 134.76 8.02248 135.165 8.18977C135.57 8.35707 136.015 8.40039 136.445 8.31427C136.875 8.22815 137.269 8.01646 137.578 7.706C137.888 7.39555 138.098 7.00029 138.182 6.5703C138.267 6.14032 138.222 5.69495 138.053 5.2906C137.884 4.88625 137.599 4.54111 137.234 4.2989C136.868 4.0567 136.439 3.92831 136.001 3.93002C135.416 3.93344 134.856 4.16803 134.443 4.58269C134.03 4.99736 133.797 5.55847 133.796 6.14374Z" fill="#26A4FF"/>
</svg>
